<svg width="8" height="13" viewBox="0 0 8 13" fill="none" xmlns="http://www.w3.org/2000/svg">
<path d="M0.277067 12.7425C0.188603 12.6639 0.118417 12.5694 0.0708296 12.4648C0.0232425 12.3602 -0.000738095 12.2476 0.000364445 12.1341C0.000364445 11.8998 0.0925985 11.6976 0.277067 11.5266L5.69051 6.50852L0.258443 1.47319C0.173511 1.39479 0.106798 1.30109 0.0624128 1.19788C0.0180278 1.09467 -0.0030887 0.984128 0.000364445 0.873064C0.000364445 0.634657 0.0925985 0.429133 0.277067 0.256493C0.461535 0.0854978 0.680592 0 0.933349 0C1.18611 0 1.40428 0.0854978 1.58963 0.257315L7.7977 6.02842C7.86722 6.09096 7.92084 6.16706 7.95468 6.2512C7.98601 6.33383 8.00133 6.42095 7.99991 6.50852C8.0007 6.59585 7.98509 6.68264 7.95379 6.76501C7.91982 6.84909 7.86621 6.92517 7.79682 6.9878L1.57101 12.7597C1.48794 12.8381 1.38842 12.8998 1.27858 12.9411C1.16875 12.9824 1.05095 13.0024 0.932462 12.9998C0.679705 12.9998 0.461535 12.9143 0.277067 12.7425Z" fill="#4CA8BF"/>
</svg>
