<svg width="41" height="41" viewBox="0 0 41 41" fill="none" xmlns="http://www.w3.org/2000/svg">
<rect x="0.5" y="0.933105" width="40" height="40" rx="20" fill="#4CA8BF"/>
<path d="M27.0169 12.1781C26.0485 11.0726 25.5148 9.6528 25.5152 8.18311H21.1377V25.7498C21.104 26.7004 20.7026 27.6008 20.0182 28.2614C19.3338 28.9221 18.4198 29.2913 17.4686 29.2914C15.4569 29.2914 13.7852 27.6481 13.7852 25.6081C13.7852 23.1714 16.1369 21.3439 18.5594 22.0948V17.6181C13.6719 16.9664 9.39355 20.7631 9.39355 25.6081C9.39355 30.3256 13.3036 33.6831 17.4544 33.6831C21.9027 33.6831 25.5152 30.0706 25.5152 25.6081V16.6973C27.2903 17.9721 29.4215 18.656 31.6069 18.6523V14.2748C31.6069 14.2748 28.9436 14.4023 27.0169 12.1781Z" fill="white"/>
</svg>
