<svg width="21" height="21" viewBox="0 0 21 21" fill="none" xmlns="http://www.w3.org/2000/svg">
<g opacity="0.7" clip-path="url(#clip0_1032_480)">
<path d="M16.75 14.5451C15.99 14.5451 15.31 14.8426 14.79 15.3087L7.66 11.1932C7.71 10.9651 7.75 10.737 7.75 10.499C7.75 10.261 7.71 10.0329 7.66 9.80481L14.71 5.72893C15.25 6.22478 15.96 6.53221 16.75 6.53221C18.41 6.53221 19.75 5.20334 19.75 3.55712C19.75 1.9109 18.41 0.582031 16.75 0.582031C15.09 0.582031 13.75 1.9109 13.75 3.55712C13.75 3.79513 13.79 4.02322 13.84 4.25131L6.79 8.32718C6.25 7.83133 5.54 7.52391 4.75 7.52391C3.09 7.52391 1.75 8.85278 1.75 10.499C1.75 12.1452 3.09 13.4741 4.75 13.4741C5.54 13.4741 6.25 13.1666 6.79 12.6708L13.91 16.7963C13.86 17.0045 13.83 17.2227 13.83 17.4409C13.83 19.0375 15.14 20.3366 16.75 20.3366C18.36 20.3366 19.67 19.0375 19.67 17.4409C19.67 15.8442 18.36 14.5451 16.75 14.5451ZM16.75 2.56542C17.3 2.56542 17.75 3.01169 17.75 3.55712C17.75 4.10255 17.3 4.54882 16.75 4.54882C16.2 4.54882 15.75 4.10255 15.75 3.55712C15.75 3.01169 16.2 2.56542 16.75 2.56542ZM4.75 11.4907C4.2 11.4907 3.75 11.0444 3.75 10.499C3.75 9.95356 4.2 9.5073 4.75 9.5073C5.3 9.5073 5.75 9.95356 5.75 10.499C5.75 11.0444 5.3 11.4907 4.75 11.4907ZM16.75 18.4524C16.2 18.4524 15.75 18.0061 15.75 17.4607C15.75 16.9153 16.2 16.469 16.75 16.469C17.3 16.469 17.75 16.9153 17.75 17.4607C17.75 18.0061 17.3 18.4524 16.75 18.4524Z" fill="black"/>
</g>
<defs>
<clipPath id="clip0_1032_480">
<rect width="20" height="20" fill="white" transform="translate(0.75 0.5)"/>
</clipPath>
</defs>
</svg>
