<svg width="25" height="26" viewBox="0 0 25 26" fill="none" xmlns="http://www.w3.org/2000/svg">
<path d="M12.1245 8.96411C9.89009 8.96411 8.08875 10.7829 8.08875 13C8.08875 15.2171 9.90742 17.0359 12.1245 17.0359C14.3415 17.0359 16.1602 15.2171 16.1602 13C16.1602 10.7829 14.3415 8.96411 12.1245 8.96411ZM24.2489 13C24.2489 11.3198 24.2489 9.67429 24.1623 7.99411C24.0757 6.05411 23.6254 4.32196 22.2051 2.91893C20.7848 1.49857 19.07 1.04821 17.1301 0.961607C15.45 0.875 13.8046 0.875 12.1245 0.875C10.4444 0.875 8.79889 0.875 7.11879 0.961607C5.17888 1.04821 3.44681 1.49857 2.04384 2.91893C0.623544 4.33929 0.173206 6.05411 0.0866032 7.99411C-8.38818e-08 9.67429 0 11.3198 0 13C0 14.6802 -8.38818e-08 16.3257 0.0866032 18.0059C0.173206 19.9459 0.623544 21.678 2.04384 23.0811C3.46413 24.5014 5.17888 24.9518 7.11879 25.0384C8.79889 25.125 10.4444 25.125 12.1245 25.125C13.8046 25.125 15.45 25.125 17.1301 25.0384C19.07 24.9518 20.8021 24.5014 22.2051 23.0811C23.6254 21.6607 24.0757 19.9459 24.1623 18.0059C24.2662 16.343 24.2489 14.6802 24.2489 13ZM12.1245 19.2184C8.67765 19.2184 5.90634 16.447 5.90634 13C5.90634 9.55304 8.67765 6.78161 12.1245 6.78161C15.5713 6.78161 18.3426 9.55304 18.3426 13C18.3426 16.447 15.5713 19.2184 12.1245 19.2184ZM18.6024 7.97679C17.8056 7.97679 17.1474 7.33589 17.1474 6.52179C17.1474 5.70768 17.7883 5.06679 18.6024 5.06679C19.4165 5.06679 20.0573 5.70768 20.0573 6.52179C20.0617 6.71152 20.0271 6.90013 19.9556 7.07592C19.8841 7.25172 19.7772 7.41095 19.6416 7.54375C19.5088 7.67933 19.3496 7.78619 19.1738 7.8577C18.998 7.92921 18.8094 7.96385 18.6197 7.95946L18.6024 7.97679Z" fill="#4CA8BF"/>
</svg>
