<svg width="25" height="26" viewBox="0 0 25 26" fill="none" xmlns="http://www.w3.org/2000/svg">
<path d="M12.875 0.875C6.182 0.875 0.75 6.307 0.75 13C0.75 19.693 6.182 25.125 12.875 25.125C19.568 25.125 25 19.693 25 13C25 6.307 19.568 0.875 12.875 0.875ZM18.501 9.12C18.3191 11.0358 17.531 15.6917 17.1309 17.8379C16.9611 18.7472 16.6216 19.0504 16.3064 19.0868C15.6031 19.1474 15.0696 18.626 14.3906 18.1774C13.3236 17.4741 12.7174 17.0376 11.6868 16.3586C10.4864 15.5705 11.2624 15.134 11.9535 14.4307C12.1354 14.2489 15.2394 11.4237 15.3 11.1691C15.3084 11.1306 15.3073 11.0905 15.2967 11.0525C15.2862 11.0145 15.2665 10.9796 15.2394 10.9509C15.1666 10.8903 15.0696 10.9145 14.9847 10.9266C14.8756 10.9509 13.1781 12.0785 9.868 14.3095C9.383 14.6369 8.9465 14.8066 8.5585 14.7945C8.122 14.7824 7.2975 14.552 6.67912 14.3459C5.91525 14.1034 5.32113 13.97 5.36962 13.5456C5.39387 13.3274 5.697 13.1091 6.26688 12.8787C9.80737 11.3389 12.1596 10.3204 13.3357 9.83537C16.7065 8.42888 17.3976 8.18637 17.8584 8.18637C17.9554 8.18637 18.1857 8.21062 18.3312 8.33187C18.4525 8.42887 18.4889 8.56225 18.501 8.65925C18.4889 8.732 18.5131 8.95025 18.501 9.12Z" fill="#4CA8BF"/>
</svg>
