<svg width="233" height="129" viewBox="0 0 233 129" fill="none" xmlns="http://www.w3.org/2000/svg">
<rect width="233" height="129" rx="5" fill="#82CDDF"/>
<path d="M176.277 22.9708V21.4093H184.251V22.9708H181.276V31H179.252V22.9708H176.277ZM187.836 21.4093V24.6246H190.026C191.227 24.6246 192.148 24.9111 192.788 25.4839C193.435 26.0568 193.759 26.8329 193.759 27.8123C193.759 28.7979 193.435 29.5771 192.788 30.15C192.148 30.7167 191.227 31 190.026 31H185.812V21.4093H187.836ZM189.85 26.1215H187.836V29.5124H189.85C190.54 29.5124 191.027 29.3553 191.31 29.0412C191.593 28.7209 191.735 28.3051 191.735 27.7938C191.735 27.3011 191.593 26.9007 191.31 26.5927C191.027 26.2785 190.54 26.1215 189.85 26.1215ZM194.95 31V21.4093H196.974V31H194.95ZM198.97 26.3525V26.0568C198.97 24.5846 199.379 23.3989 200.199 22.4995C201.018 21.594 202.13 21.1413 203.534 21.1413C204.852 21.1413 205.853 21.4863 206.537 22.1761C207.227 22.8599 207.581 23.6545 207.6 24.56V24.6524H205.632V24.5785C205.632 24.0672 205.462 23.6329 205.123 23.2757C204.785 22.9122 204.255 22.7305 203.534 22.7305C202.69 22.7305 202.062 23.0385 201.649 23.6545C201.237 24.2643 201.03 25.0497 201.03 26.0106V26.3987C201.03 27.3473 201.233 28.1326 201.64 28.7548C202.053 29.3769 202.684 29.688 203.534 29.688C204.273 29.688 204.809 29.5032 205.142 29.1336C205.474 28.764 205.641 28.3267 205.641 27.8216V27.7476H207.6V27.8308C207.6 28.7363 207.252 29.5371 206.555 30.2331C205.859 30.923 204.852 31.2679 203.534 31.2679C202.13 31.2679 201.018 30.8183 200.199 29.919C199.379 29.0135 198.97 27.8246 198.97 26.3525Z" fill="black"/>
<path d="M64.2021 45.8428L64.5767 43.7686H76.1001L75.7832 45.4683C75.4951 47.2352 75.668 48.5508 76.3018 49.415C76.9548 50.2601 77.9823 50.6826 79.3843 50.6826C80.8055 50.6826 81.9771 50.2697 82.8989 49.4438C83.84 48.5988 84.4834 47.1776 84.8291 45.1802C85.1556 43.2596 84.9539 41.8768 84.2241 41.0317C83.4943 40.1867 82.2939 39.7642 80.623 39.7642H76.2153L77.4253 32.9653H81.6313C82.9757 32.9653 84.1185 32.5716 85.0596 31.7842C86.0199 30.9775 86.6536 29.6908 86.9609 27.9238C87.249 26.349 87.1242 25.2062 86.5864 24.4956C86.0487 23.7658 85.1652 23.4009 83.936 23.4009C82.63 23.4009 81.5929 23.8234 80.8247 24.6685C80.0757 25.4943 79.5667 26.6947 79.2979 28.2695L79.0962 29.4507H67.8032L68.0625 28.0103C68.7347 24.0923 70.6841 21.0098 73.9106 18.7627C77.1372 16.5156 81.084 15.3921 85.751 15.3921C90.5524 15.3921 94.0767 16.4292 96.3237 18.5034C98.5708 20.5584 99.3966 23.2088 98.8013 26.4546C98.3979 28.7593 97.5625 30.6991 96.2949 32.2739C95.0273 33.8488 93.3372 35.0588 91.2246 35.9038V36.019C93.0107 36.5184 94.4608 37.6035 95.5747 39.2744C96.6886 40.9261 96.9959 43.1444 96.4966 45.9292C95.8436 49.6551 93.8366 52.7088 90.4756 55.0903C87.1146 57.4718 82.9277 58.6626 77.915 58.6626C72.96 58.6626 69.2629 57.5199 66.8237 55.2344C64.3846 52.9489 63.5107 49.8184 64.2021 45.8428ZM99.3486 42.8467L101.394 31.208C102.278 26.2721 104.333 22.4022 107.559 19.5981C110.805 16.7941 114.886 15.3921 119.803 15.3921C124.7 15.3921 128.282 16.7749 130.548 19.5405C132.834 22.2869 133.525 26.1761 132.623 31.208L130.577 42.8467C129.674 47.9746 127.543 51.8926 124.182 54.6006C120.821 57.3086 116.816 58.6626 112.168 58.6626C107.213 58.6434 103.612 57.2798 101.365 54.5718C99.1374 51.8446 98.4652 47.9362 99.3486 42.8467ZM110.757 45.0649C110.45 46.8319 110.517 48.2051 110.958 49.1846C111.4 50.1641 112.274 50.6538 113.58 50.6538C114.905 50.6538 115.962 50.1641 116.749 49.1846C117.536 48.2051 118.084 46.8319 118.391 45.0649L121.186 29.1914C121.512 27.3861 121.454 25.9937 121.013 25.0142C120.571 24.0155 119.688 23.5161 118.362 23.5161C117.056 23.5161 116.01 24.0155 115.222 25.0142C114.435 25.9937 113.878 27.3861 113.551 29.1914L110.757 45.0649ZM133.343 42.8467L135.388 31.208C136.272 26.2721 138.327 22.4022 141.553 19.5981C144.799 16.7941 148.88 15.3921 153.797 15.3921C158.694 15.3921 162.276 16.7749 164.542 19.5405C166.828 22.2869 167.519 26.1761 166.617 31.208L164.571 42.8467C163.669 47.9746 161.537 51.8926 158.176 54.6006C154.815 57.3086 150.81 58.6626 146.163 58.6626C141.208 58.6434 137.606 57.2798 135.359 54.5718C133.132 51.8446 132.459 47.9362 133.343 42.8467ZM144.751 45.0649C144.444 46.8319 144.511 48.2051 144.953 49.1846C145.394 50.1641 146.268 50.6538 147.574 50.6538C148.899 50.6538 149.956 50.1641 150.743 49.1846C151.531 48.2051 152.078 46.8319 152.385 45.0649L155.18 29.1914C155.506 27.3861 155.449 25.9937 155.007 25.0142C154.565 24.0155 153.682 23.5161 152.356 23.5161C151.05 23.5161 150.004 24.0155 149.216 25.0142C148.429 25.9937 147.872 27.3861 147.545 29.1914L144.751 45.0649Z" fill="black"/>
</svg>
