<svg width="233" height="131" viewBox="0 0 233 131" fill="none" xmlns="http://www.w3.org/2000/svg">
<rect y="2" width="233" height="129" rx="5" fill="#82CDDF"/>
<path d="M133.275 58V48.4093H136.028L138.542 54.5629C138.677 54.914 138.766 55.1634 138.81 55.3113C138.853 55.4529 138.89 55.6008 138.92 55.7548H139.004C139.034 55.6008 139.071 55.4529 139.115 55.3113C139.158 55.1634 139.247 54.9201 139.382 54.5813L141.896 48.4093H144.621V58H142.663V51.754C142.663 51.3967 142.666 51.1319 142.672 50.9594C142.684 50.7869 142.696 50.6298 142.709 50.4882H142.635C142.598 50.6237 142.555 50.7777 142.505 50.9502C142.456 51.1165 142.364 51.3752 142.228 51.7263L139.678 58H138.052L135.493 51.6986C135.369 51.3906 135.28 51.1473 135.225 50.9686C135.175 50.79 135.135 50.6298 135.105 50.4882H135.012C135.024 50.6298 135.034 50.7869 135.04 50.9594C135.052 51.1257 135.058 51.3721 135.058 51.6986V58H133.275ZM149.897 49.9708L149.74 53.6112C149.666 55.2497 149.444 56.4231 149.075 57.1315C148.711 57.8398 148.043 58.194 147.07 58.194C146.854 58.194 146.654 58.1817 146.469 58.1571C146.291 58.1324 146.143 58.0924 146.026 58.037V56.3738C146.124 56.4169 146.226 56.4477 146.331 56.4662C146.442 56.4847 146.562 56.4939 146.691 56.4939C147.147 56.4939 147.452 56.2691 147.606 55.8194C147.76 55.3636 147.861 54.5444 147.911 53.3617L148.132 48.4093H155.118V58H153.094V49.9708H149.897ZM157.686 48.4093H159.71V52.3269H163.692V48.4093H165.715V58H163.692V53.8791H159.71V58H157.686V48.4093Z" fill="black"/>
<path d="M100.077 30.2285C100.903 25.6383 103.025 22.0277 106.444 19.3965C109.882 16.7461 113.944 15.4209 118.63 15.4209C123.547 15.4209 127.205 16.8517 129.606 19.7134C132.026 22.575 132.698 27.0788 131.623 33.2246L131.219 35.4717C129.971 42.5202 126.831 48.0994 121.799 52.2095C116.786 56.3003 110.266 58.3745 102.238 58.4321H99.7026L101.316 49.3286H103.477C107.951 49.3478 111.562 48.2435 114.309 46.0156C117.055 43.7878 118.976 39.5913 120.07 33.4263V32.4468C120.704 28.8553 120.723 26.4642 120.128 25.2734C119.552 24.0827 118.553 23.4873 117.132 23.4873C115.807 23.4873 114.712 23.9482 113.848 24.8701C112.983 25.792 112.311 27.6549 111.831 30.459C111.447 32.6292 111.485 34.2233 111.946 35.2412C112.426 36.2591 113.377 36.7681 114.798 36.7681C116.104 36.7681 117.266 36.2879 118.284 35.3276C119.321 34.3674 119.984 33.0614 120.272 31.4097H122.145C121.492 35.0396 119.965 37.9588 117.564 40.1675C115.182 42.3761 112.426 43.4805 109.296 43.4805C105.781 43.4805 103.179 42.3185 101.489 39.9946C99.7987 37.6707 99.3281 34.4154 100.077 30.2285Z" fill="black"/>
</svg>
