<svg width="233" height="130" viewBox="0 0 233 130" fill="none" xmlns="http://www.w3.org/2000/svg">
<rect width="233" height="129" rx="5" fill="#82CDDF"/>
<path d="M209.286 80.3503V80.2117H211.236V80.3319C211.236 81.0587 211.476 81.6008 211.957 81.958C212.443 82.3153 213.121 82.4939 213.989 82.4939C214.858 82.4939 215.523 82.3153 215.985 81.958C216.447 81.6008 216.678 81.1265 216.678 80.5351C216.678 79.9992 216.475 79.5219 216.068 79.103C215.668 78.678 214.781 78.2899 213.407 77.9388C212.015 77.5877 211.02 77.0857 210.423 76.4327C209.832 75.7798 209.536 74.9636 209.536 73.9842C209.536 72.974 209.924 72.1455 210.7 71.4988C211.476 70.852 212.542 70.5286 213.897 70.5286C215.264 70.5286 216.352 70.8797 217.159 71.5819C217.966 72.278 218.369 73.1434 218.369 74.1783V74.2984H216.429V74.1967C216.429 73.5561 216.216 73.0449 215.791 72.663C215.372 72.2811 214.744 72.0901 213.906 72.0901C213.075 72.0901 212.462 72.2503 212.068 72.5706C211.673 72.8847 211.476 73.3375 211.476 73.9288C211.476 74.4154 211.67 74.8558 212.058 75.2501C212.453 75.6381 213.33 76.0077 214.692 76.3588C216.065 76.7038 217.063 77.2181 217.685 77.9018C218.307 78.5794 218.618 79.4356 218.618 80.4705C218.618 81.5361 218.2 82.3985 217.362 83.0576C216.53 83.7167 215.409 84.0462 213.999 84.0462C212.582 84.0462 211.442 83.7197 210.58 83.0668C209.718 82.4139 209.286 81.5084 209.286 80.3503ZM213.186 85.5245V77.0241H214.692V83.2608L214.83 83.344V85.5245H213.186ZM213.278 77.0241V71.2308L213.149 71.1384V69.2997H214.793V77.0241H213.278Z" fill="black"/>
<path d="M125.09 113L130.679 81.3105L118.81 84.8828L120.481 75.4336L135.433 70.8242H144.306L136.873 113H125.09ZM145.833 117.926C146.831 116.793 147.638 115.612 148.252 114.383C148.867 113.173 149.299 111.867 149.549 110.465L150.96 102.37H161.13L159.718 110.407C159.392 112.174 158.729 113.874 157.73 115.506C156.732 117.158 155.531 118.522 154.129 119.597L145.833 117.926ZM168.707 85.2285C169.532 80.6383 171.655 77.0277 175.073 74.3965C178.511 71.7461 182.573 70.4209 187.259 70.4209C192.176 70.4209 195.835 71.8517 198.235 74.7134C200.655 77.575 201.327 82.0788 200.252 88.2246L199.849 90.4717C198.6 97.5202 195.46 103.099 190.428 107.209C185.416 111.3 178.895 113.375 170.867 113.432H168.332L169.945 104.329H172.106C176.581 104.348 180.192 103.243 182.938 101.016C185.684 98.7878 187.605 94.5913 188.7 88.4263V87.4468C189.333 83.8553 189.353 81.4642 188.757 80.2734C188.181 79.0827 187.182 78.4873 185.761 78.4873C184.436 78.4873 183.341 78.9482 182.477 79.8701C181.613 80.792 180.941 82.6549 180.46 85.459C180.076 87.6292 180.115 89.2233 180.576 90.2412C181.056 91.2591 182.007 91.7681 183.428 91.7681C184.734 91.7681 185.896 91.2879 186.914 90.3276C187.951 89.3674 188.613 88.0614 188.901 86.4097H190.774C190.121 90.0396 188.594 92.9588 186.193 95.1675C183.812 97.3761 181.056 98.4805 177.925 98.4805C174.411 98.4805 171.808 97.3185 170.118 94.9946C168.428 92.6707 167.958 89.4154 168.707 85.2285Z" fill="black"/>
</svg>
