<svg width="233" height="130" viewBox="0 0 233 130" fill="none" xmlns="http://www.w3.org/2000/svg">
<rect width="233" height="129" rx="5" fill="#82CDDF"/>
<path d="M209.554 74.8528V73.282C209.554 72.3642 209.841 71.6404 210.414 71.1107C210.987 70.581 211.775 70.3161 212.779 70.3161C213.783 70.3161 214.572 70.581 215.144 71.1107C215.717 71.6404 216.004 72.3642 216.004 73.282V74.8528C216.004 75.7829 215.717 76.5159 215.144 77.0518C214.572 77.5877 213.783 77.8556 212.779 77.8556C211.775 77.8556 210.987 77.5877 210.414 77.0518C209.841 76.5159 209.554 75.7829 209.554 74.8528ZM211.744 74.9174C211.744 75.2932 211.821 75.595 211.975 75.8229C212.135 76.0447 212.403 76.1555 212.779 76.1555C213.155 76.1555 213.42 76.0447 213.574 75.8229C213.734 75.595 213.814 75.2932 213.814 74.9174V73.2635C213.814 72.8878 213.734 72.586 213.574 72.3581C213.42 72.1301 213.155 72.0162 212.779 72.0162C212.403 72.0162 212.135 72.1301 211.975 72.3581C211.821 72.586 211.744 72.8878 211.744 73.2635V74.9174ZM222.471 71.0091L214.599 84.3603L213.001 83.3902L220.864 70.0759L222.471 71.0091ZM219.385 81.2651V79.6943C219.385 78.7765 219.672 78.0528 220.245 77.523C220.817 76.9933 221.606 76.7284 222.61 76.7284C223.614 76.7284 224.402 76.9933 224.975 77.523C225.548 78.0528 225.835 78.7765 225.835 79.6943V81.2651C225.835 82.1952 225.548 82.9282 224.975 83.4641C224.402 84 223.614 84.2679 222.61 84.2679C221.606 84.2679 220.817 84 220.245 83.4641C219.672 82.9282 219.385 82.1952 219.385 81.2651ZM221.575 81.3297C221.575 81.7055 221.652 82.0073 221.806 82.2352C221.966 82.457 222.234 82.5679 222.61 82.5679C222.986 82.5679 223.251 82.457 223.405 82.2352C223.565 82.0073 223.645 81.7055 223.645 81.3297V79.6758C223.645 79.3001 223.565 78.9983 223.405 78.7704C223.251 78.5425 222.986 78.4285 222.61 78.4285C222.234 78.4285 221.966 78.5425 221.806 78.7704C221.652 78.9983 221.575 79.3001 221.575 79.6758V81.3297Z" fill="black"/>
<path d="M125.09 113L130.679 81.3105L118.81 84.8828L120.481 75.4336L135.433 70.8242H144.306L136.873 113H125.09ZM145.833 117.926C146.831 116.793 147.638 115.612 148.252 114.383C148.867 113.173 149.299 111.867 149.549 110.465L150.96 102.37H161.13L159.718 110.407C159.392 112.174 158.729 113.874 157.73 115.506C156.732 117.158 155.531 118.522 154.129 119.597L145.833 117.926ZM168.707 85.2285C169.532 80.6383 171.655 77.0277 175.073 74.3965C178.511 71.7461 182.573 70.4209 187.259 70.4209C192.176 70.4209 195.835 71.8517 198.235 74.7134C200.655 77.575 201.327 82.0788 200.252 88.2246L199.849 90.4717C198.6 97.5202 195.46 103.099 190.428 107.209C185.416 111.3 178.895 113.375 170.867 113.432H168.332L169.945 104.329H172.106C176.581 104.348 180.192 103.243 182.938 101.016C185.684 98.7878 187.605 94.5913 188.7 88.4263V87.4468C189.333 83.8553 189.353 81.4642 188.757 80.2734C188.181 79.0827 187.182 78.4873 185.761 78.4873C184.436 78.4873 183.341 78.9482 182.477 79.8701C181.613 80.792 180.941 82.6549 180.46 85.459C180.076 87.6292 180.115 89.2233 180.576 90.2412C181.056 91.2591 182.007 91.7681 183.428 91.7681C184.734 91.7681 185.896 91.2879 186.914 90.3276C187.951 89.3674 188.613 88.0614 188.901 86.4097H190.774C190.121 90.0396 188.594 92.9588 186.193 95.1675C183.812 97.3761 181.056 98.4805 177.925 98.4805C174.411 98.4805 171.808 97.3185 170.118 94.9946C168.428 92.6707 167.958 89.4154 168.707 85.2285Z" fill="black"/>
</svg>
