<svg width="54" height="54" viewBox="0 0 54 54" fill="none" xmlns="http://www.w3.org/2000/svg">
<path d="M54 22.0991V44.4706C54 49.7336 49.7336 54 44.4706 54H9.52942C4.26642 54 0 49.7336 0 44.4706V9.52942C0 4.26642 4.26642 0 9.52942 0H44.4706C48.8091 0 52.4706 2.89944 53.6229 6.86633L30.9706 29.5186L22.5642 21.1122C21.9439 20.4919 20.9384 20.4919 20.3181 21.1122L14.7593 26.671C14.139 27.2913 14.139 28.297 14.7593 28.9171L29.8475 44.0054C30.4678 44.6256 31.4734 44.6256 32.0936 44.0054L54 22.0991Z" fill="#4CA8BF"/>
</svg>
