<svg width="233" height="131" viewBox="0 0 233 131" fill="none" xmlns="http://www.w3.org/2000/svg">
<rect width="233" height="129" rx="5" fill="#82CDDF"/>
<path d="M188.275 88.8714V75.4093H190.141L190.206 76.6196H190.252C190.48 76.2254 190.847 75.8959 191.352 75.631C191.857 75.36 192.436 75.2245 193.089 75.2245C194.309 75.2245 195.285 75.671 196.018 76.5642C196.751 77.4574 197.117 78.6185 197.117 80.0476V80.3432C197.117 81.7723 196.751 82.9365 196.018 83.8358C195.291 84.7351 194.321 85.1848 193.107 85.1848C192.461 85.1848 191.897 85.0708 191.417 84.8429C190.942 84.615 190.57 84.307 190.299 83.919V88.8714H188.275ZM190.299 82.0433C190.471 82.4499 190.757 82.8102 191.158 83.1244C191.564 83.4385 192.048 83.5956 192.608 83.5956C193.446 83.5956 194.062 83.2968 194.456 82.6993C194.851 82.0957 195.048 81.3288 195.048 80.3987V80.0014C195.048 79.0712 194.851 78.3105 194.456 77.7192C194.062 77.1217 193.446 76.8229 192.608 76.8229C192.036 76.8229 191.552 76.9769 191.158 77.2849C190.764 77.5929 190.477 77.9471 190.299 78.3475V82.0433ZM198.587 82.1819C198.587 81.184 198.978 80.4171 199.76 79.8812C200.548 79.3392 201.549 79.0651 202.763 79.0589H204.851V78.4214C204.851 77.8855 204.712 77.4543 204.435 77.1278C204.164 76.8014 203.693 76.6381 203.022 76.6381C202.344 76.6381 201.857 76.7767 201.562 77.0539C201.272 77.3249 201.127 77.6514 201.127 78.0333V78.1257H199.132V78.0148C199.132 77.2264 199.489 76.5519 200.203 75.9914C200.924 75.4247 201.885 75.1413 203.086 75.1413C204.287 75.1413 205.217 75.4123 205.877 75.9544C206.542 76.4965 206.874 77.3219 206.874 78.4306V82.801C206.874 83.2014 206.905 83.5771 206.967 83.9282C207.035 84.2793 207.124 84.5873 207.235 84.8522V85H205.267C205.187 84.8522 205.113 84.6581 205.045 84.4179C204.977 84.1777 204.934 83.9374 204.916 83.6972C204.706 84.0853 204.343 84.4302 203.825 84.7321C203.314 85.0277 202.661 85.1756 201.867 85.1756C200.943 85.1756 200.163 84.923 199.529 84.4179C198.901 83.9066 198.587 83.1613 198.587 82.1819ZM200.61 82.0433C200.61 82.5546 200.758 82.958 201.053 83.2537C201.349 83.5432 201.808 83.688 202.43 83.688C203.065 83.688 203.625 83.4724 204.112 83.0412C204.605 82.61 204.851 82.1357 204.851 81.6183V80.3987H203.031C202.224 80.3987 201.617 80.5465 201.211 80.8422C200.81 81.1317 200.61 81.5321 200.61 82.0433ZM213.047 85.2679C211.605 85.2679 210.54 84.9353 209.85 84.2701C209.16 83.6048 208.815 82.8225 208.815 81.9232V81.8678H210.774V81.9232C210.774 82.4037 210.943 82.8287 211.282 83.1983C211.627 83.5617 212.212 83.7434 213.037 83.7434C213.721 83.7434 214.251 83.6048 214.627 83.3276C215.008 83.0504 215.199 82.6655 215.199 82.1727C215.199 81.7661 215.064 81.4458 214.793 81.2117C214.522 80.9715 214.091 80.8514 213.499 80.8514H211.956V79.4008H213.241C213.826 79.4008 214.248 79.2837 214.506 79.0497C214.765 78.8156 214.894 78.4922 214.894 78.0795C214.894 77.6298 214.737 77.2818 214.423 77.0354C214.109 76.789 213.669 76.6658 213.102 76.6658C212.4 76.6658 211.867 76.8352 211.504 77.174C211.14 77.5067 210.958 77.944 210.958 78.4861V78.5507H209V78.4861C209 77.4635 209.363 76.6504 210.09 76.0468C210.817 75.4431 211.839 75.1413 213.157 75.1413C214.402 75.1413 215.344 75.3877 215.985 75.8805C216.625 76.3733 216.946 77.0478 216.946 77.904C216.946 78.4214 216.77 78.8772 216.419 79.2714C216.074 79.6595 215.603 79.9182 215.005 80.0476V80.066C215.714 80.1707 216.262 80.411 216.65 80.7867C217.044 81.1563 217.241 81.6399 217.241 82.2373C217.241 83.2106 216.847 83.959 216.059 84.4826C215.276 85.0062 214.272 85.2679 213.047 85.2679ZM218.858 82.1819C218.858 81.184 219.249 80.4171 220.032 79.8812C220.82 79.3392 221.821 79.0651 223.035 79.0589H225.123V78.4214C225.123 77.8855 224.984 77.4543 224.707 77.1278C224.436 76.8014 223.965 76.6381 223.293 76.6381C222.616 76.6381 222.129 76.7767 221.833 77.0539C221.544 77.3249 221.399 77.6514 221.399 78.0333V78.1257H219.403V78.0148C219.403 77.2264 219.761 76.5519 220.475 75.9914C221.196 75.4247 222.157 75.1413 223.358 75.1413C224.559 75.1413 225.489 75.4123 226.148 75.9544C226.814 76.4965 227.146 77.3219 227.146 78.4306V82.801C227.146 83.2014 227.177 83.5771 227.239 83.9282C227.306 84.2793 227.396 84.5873 227.507 84.8522V85H225.539C225.458 84.8522 225.385 84.6581 225.317 84.4179C225.249 84.1777 225.206 83.9374 225.187 83.6972C224.978 84.0853 224.615 84.4302 224.097 84.7321C223.586 85.0277 222.933 85.1756 222.138 85.1756C221.214 85.1756 220.435 84.923 219.801 84.4179C219.172 83.9066 218.858 83.1613 218.858 82.1819ZM220.882 82.0433C220.882 82.5546 221.03 82.958 221.325 83.2537C221.621 83.5432 222.08 83.688 222.702 83.688C223.336 83.688 223.897 83.4724 224.384 83.0412C224.876 82.61 225.123 82.1357 225.123 81.6183V80.3987H223.303C222.496 80.3987 221.889 80.5465 221.482 80.8422C221.082 81.1317 220.882 81.5321 220.882 82.0433Z" fill="black"/>
<path d="M155.436 114L157.309 103.398L157.741 102.707L160.622 86.459H160.362L151.46 97.4062H162.725L163.877 97.1182H173.701L172.145 106.049H139.13L140.542 98.0112L163.963 72.0547H173.729L166.326 114H155.436Z" fill="black"/>
</svg>
