<svg width="71" height="40" viewBox="0 0 71 40" fill="none" xmlns="http://www.w3.org/2000/svg">
<path d="M0.774463 38.7081C0.552397 38.6263 0.369711 38.4631 0.263317 38.2515C0.156922 38.04 0.134752 37.7958 0.201287 37.5684C0.267822 37.341 0.418101 37.1473 0.621758 37.0264C0.825417 36.9055 1.06727 36.8664 1.29845 36.9171C1.72314 37.0096 44.0534 45.8261 64.1552 9.96711C64.2764 9.75064 64.4786 9.5912 64.7172 9.52385C64.9558 9.4565 65.2113 9.48677 65.4275 9.60799C65.6437 9.72921 65.8028 9.93146 65.8699 10.1702C65.937 10.409 65.9066 10.6648 65.7853 10.8812C44.9965 47.9648 1.33397 38.8398 0.895797 38.7435C0.854612 38.7344 0.814079 38.7226 0.774463 38.7081Z" fill="black"/>
<path d="M69.6547 0.14753C69.1838 5.79224 69.4353 13.1864 70.9267 18.395L64.2437 11.712L54.8337 10.8632C59.7878 8.67036 65.6221 4.12471 69.6547 0.14753Z" fill="black"/>
</svg>
