<svg width="27" height="55" viewBox="0 0 27 55" fill="none" xmlns="http://www.w3.org/2000/svg">
<path d="M1.75453 0.284043C1.60094 0.212308 1.42581 0.20162 1.26452 0.254135C1.10324 0.306654 0.967836 0.418459 0.885663 0.566967C0.803492 0.715472 0.78068 0.889607 0.821841 1.05418C0.863 1.21875 0.965061 1.3615 1.1074 1.45358C1.36853 1.62308 27.1953 18.717 19.0835 47.0236C19.0345 47.1944 19.0553 47.3777 19.1414 47.533C19.2274 47.6884 19.3716 47.8031 19.5423 47.852C19.7129 47.9009 19.8961 47.8799 20.0514 47.7937C20.2067 47.7074 20.3215 47.563 20.3705 47.3922C28.759 18.1187 2.10363 0.502334 1.8337 0.327952C1.80831 0.311576 1.78186 0.296911 1.75453 0.284043Z" fill="black"/>
<path d="M16.8597 54.7724C19.4944 51.687 23.3835 48.0872 26.7857 46.2202L20.016 46.1889L14.8401 41.8288C16.2219 45.4551 16.8503 50.7154 16.8597 54.7724Z" fill="black"/>
</svg>
